<?xml version="1.0" encoding="utf-8"?>
<!-- Generator: Adobe Illustrator 16.0.0, SVG Export Plug-In . SVG Version: 6.00 Build 0)  -->
<!DOCTYPE svg PUBLIC "-//W3C//DTD SVG 1.1//EN" "http://www.w3.org/Graphics/SVG/1.1/DTD/svg11.dtd">
<svg version="1.1" id="Layer_1" xmlns="http://www.w3.org/2000/svg" xmlns:xlink="http://www.w3.org/1999/xlink" x="0px" y="0px"
	 width="50px" height="50px" viewBox="0 0 50 50" enable-background="new 0 0 50 50" xml:space="preserve">
<path fill="#99B8C7" d="M35.278,15.446c-2.467,0-4.466,2-4.466,4.466c0,2.466,1.999,4.465,4.466,4.465s4.466-1.999,4.466-4.465
	C39.744,17.445,37.745,15.446,35.278,15.446z M20.513,29.336c-2.467,0-4.466,2-4.466,4.466c0,2.467,1.999,4.466,4.466,4.466
	c2.466,0,4.466-1.999,4.466-4.466C24.979,31.336,22.979,29.336,20.513,29.336z M29.264,19.912c0,4.707-3.815,8.521-8.521,8.521
	c-4.707,0-8.522-3.815-8.522-8.521c0-4.707,3.815-8.522,8.522-8.522C25.448,11.39,29.264,15.205,29.264,19.912z M25.208,19.912
	c0-2.466-1.999-4.466-4.466-4.466s-4.466,2-4.466,4.466c0,2.467,1.999,4.466,4.466,4.466S25.208,22.378,25.208,19.912z
	 M12.357,31.901c-1.188,0-2.15,0.963-2.15,2.151c0,1.188,0.963,2.15,2.15,2.15c1.188,0,2.15-0.963,2.15-2.15
	C14.508,32.864,13.546,31.901,12.357,31.901z"/>
</svg>
