<?xml version="1.0" encoding="utf-8"?>
<!-- Generator: Adobe Illustrator 16.0.0, SVG Export Plug-In . SVG Version: 6.00 Build 0)  -->
<!DOCTYPE svg PUBLIC "-//W3C//DTD SVG 1.1//EN" "http://www.w3.org/Graphics/SVG/1.1/DTD/svg11.dtd">
<svg version="1.1" id="Layer_1" xmlns="http://www.w3.org/2000/svg" xmlns:xlink="http://www.w3.org/1999/xlink" x="0px" y="0px"
	 width="50px" height="50px" viewBox="0 0 50 50" enable-background="new 0 0 50 50" xml:space="preserve">
<g>
	<path fill-rule="evenodd" clip-rule="evenodd" fill="#99B8C7" d="M37.222,24.588c-0.089,0-0.172,0.018-0.258,0.026
		c-1.033-4.98-5.216-8.808-10.374-9.298v-2.604c0.912-0.447,1.545-1.375,1.545-2.459c0-1.518-1.229-2.747-2.747-2.747
		c-1.517,0-2.747,1.229-2.747,2.747c0,1.112,0.665,2.065,1.615,2.497v2.571c-5.121,0.523-9.263,4.338-10.29,9.292
		c-0.082-0.007-0.161-0.024-0.245-0.024c-1.517,0-2.747,1.229-2.747,2.748c0,1.513,1.226,2.741,2.739,2.745v11.845h23.5V30.081
		c0.002,0,0.005,0.001,0.007,0.001c1.517,0,2.747-1.23,2.747-2.746C39.969,25.817,38.738,24.588,37.222,24.588z"/>
	<path fill="#FFFFFF" d="M33.049,37.343c0,0.644-0.523,1.166-1.167,1.166H18.965c-0.644,0-1.167-0.522-1.167-1.166l0,0
		c0-0.645,0.522-1.167,1.167-1.167h12.917C32.525,36.176,33.049,36.698,33.049,37.343L33.049,37.343z"/>
	<circle fill="#FFFFFF" cx="20.638" cy="27.336" r="4.91"/>
	<circle fill-rule="evenodd" clip-rule="evenodd" fill="#99B8C7" cx="20.638" cy="27.336" r="2.747"/>
	<circle fill="#FFFFFF" cx="30.333" cy="27.336" r="4.91"/>
	<circle fill-rule="evenodd" clip-rule="evenodd" fill="#99B8C7" cx="30.333" cy="27.336" r="2.747"/>
</g>
</svg>
